# xmcd
#
# Track frame offsets: 
#        150
#        15363
#        42750
#        58185
#        82841
#        103225
#        119577
#        137016
#        147453
#        164053
#        177607
#        197872
#        221517
#        236504
#        246546
#        264372
#        275948
#
# Disc length: 3765 seconds
#
# Revision: 0
# Processed by: cddbd v1.5.1PL2 Copyright (c) Steve Scherf et al.
# Submitted via: ExactAudioCopy v0.95b2
#
DISCID=0b0eb311
DTITLE=Various Artist - Saturday Blues Fever
DYEAR=2006
DGENRE=Blues
TTITLE0=A Pocketful of Blues - Crazy Little Feeling
TTITLE1=Jörg Hegemanns Boogie Express - Wee Baby
TTITLE2=A Cup Of Moonshine - My Baby Walks Like A Kangaroo
TTITLE3=Champagne Charlie and The Lazybones - I'm Just Your Fool
TTITLE4=Boom and The Ballroom Shakers - Jump Jive and Wail
TTITLE5=Bottleneck - This Flight Tonight
TTITLE6=A Pocketful of Blues - Fishing With Dynamite
TTITLE7=Chutney - These Things
TTITLE8=Old New Borrowed and Blue - Talk To Me
TTITLE9=Boom and The Ballroomshakers - Breakin' Up The House
TTITLE10=Champagne Charlie and The Lazybones - God Bless The Child
TTITLE11=Old New Borrowed and Blue - Muddy Water Blues
TTITLE12=Jörg Hegemanns Boogie Express - Steam Driven Boogie
TTITLE13=A Cup Of Moonshine - Out With The Wrong Woman
TTITLE14=Chutney - Pura Vida
TTITLE15=Bottleneck - Things Going On
TTITLE16=Kommntar zur CD
EXTD=
EXTT0=
EXTT1=
EXTT2=
EXTT3=
EXTT4=
EXTT5=
EXTT6=
EXTT7=
EXTT8=
EXTT9=
EXTT10=
EXTT11=
EXTT12=
EXTT13=
EXTT14=
EXTT15=
EXTT16=
PLAYORDER=
